<?xml version="1.0" encoding="utf-8"?>
<!-- Generator: Adobe Illustrator 16.0.0, SVG Export Plug-In . SVG Version: 6.00 Build 0)  -->
<!DOCTYPE svg PUBLIC "-//W3C//DTD SVG 1.1//EN" "http://www.w3.org/Graphics/SVG/1.1/DTD/svg11.dtd">
<svg version="1.1" id="Layer_1" xmlns="http://www.w3.org/2000/svg" xmlns:xlink="http://www.w3.org/1999/xlink" x="0px" y="0px"
	 width="360px" height="72px" viewBox="0 0 360 72" enable-background="new 0 0 360 72" xml:space="preserve">
<path d="M4.247,1.995H19.26v20.02h-1.027V7.109H8.431v14.879H4.247V1.995z M8.406,3.383v2.75h9.826v-2.75H8.406z M16.678,12.583
	v-0.616c-0.016-0.823-0.274-1.525-0.776-2.107c-0.502-0.583-1.12-0.874-1.853-0.874c-0.908,0-1.642,0.274-2.199,0.822
	c0.589-0.377,1.183-0.312,1.78,0.192c0.598,0.506,0.896,1.161,0.896,1.967v0.334v0.282v9.432h2.151v-9.432H16.678z"/>
<path d="M26,17.703l5.839-6.198L26,5.805V17.703z M39.088,12.557l-3.102,3.041l-3.046-2.981l-5.84,6.168h17.8L39.088,12.557z
	 M27.412,5.102l8.575,8.447l8.574-8.447H27.412z M40.189,11.477L46,17.703V5.805L40.189,11.477z"/>
<path d="M60.089,8.531V6.96c0-0.881,0.081-1.432,1.326-1.432c0.46,0,1.19,0.084,1.731,0.193l0.487-3.109
	c-1.056-0.221-1.867-0.387-2.977-0.387c-3.194,0-4.466,1.541-4.466,4.295v2.01h-2.003v3.248h2.003v9.881h3.897v-9.881h2.842
	L63.2,8.53L60.089,8.531L60.089,8.531z"/>
<path d="M93.738,5.94c-0.7,0.315-1.453,0.529-2.243,0.625c0.807-0.491,1.426-1.27,1.717-2.197c-0.754,0.455-1.59,0.786-2.479,0.964
	c-0.712-0.771-1.728-1.254-2.851-1.254c-2.156,0-3.905,1.778-3.905,3.971c0,0.312,0.035,0.615,0.102,0.905
	c-3.245-0.165-6.123-1.746-8.049-4.149c-0.338,0.586-0.53,1.268-0.53,1.996c0,1.378,0.689,2.593,1.737,3.306
	c-0.64-0.021-1.242-0.199-1.769-0.497c0,0.017,0,0.033,0,0.05c0,1.925,1.346,3.529,3.133,3.895c-0.328,0.091-0.673,0.14-1.029,0.14
	c-0.252,0-0.496-0.025-0.734-0.071c0.497,1.577,1.938,2.726,3.647,2.758c-1.337,1.065-3.021,1.7-4.851,1.7
	c-0.315,0-0.626-0.019-0.931-0.056c1.729,1.127,3.78,1.784,5.985,1.784c7.184,0,11.111-6.052,11.111-11.3
	c0-0.172-0.004-0.344-0.011-0.514C92.552,7.436,93.214,6.736,93.738,5.94z"/>
<g>
	<g>
		<path d="M111.242,10.508c0.226,0,0.457-0.066,0.695-0.199c0.237-0.133,0.47-0.327,0.688-0.581v0.69h1.198V4.167h-1.198v4.745
			c-0.11,0.137-0.235,0.249-0.371,0.337c-0.135,0.088-0.244,0.132-0.334,0.132c-0.11,0-0.192-0.033-0.244-0.1
			c-0.05-0.066-0.073-0.174-0.073-0.322V4.167h-1.199v5.226c0,0.372,0.07,0.651,0.211,0.837
			C110.757,10.416,110.965,10.508,111.242,10.508z M103.047,10.418h1.352V6.902l1.57-4.958h-1.371l-0.836,3.387h-0.085l-0.876-3.387
			h-1.359l1.605,5.116V10.418z M109.749,15.732c-0.069,0-0.138,0.016-0.205,0.05c-0.067,0.032-0.134,0.084-0.2,0.153v3.154
			c0.079,0.083,0.156,0.142,0.23,0.178c0.074,0.037,0.152,0.055,0.234,0.055c0.116,0,0.205-0.035,0.262-0.106
			c0.056-0.071,0.084-0.188,0.084-0.349v-2.613c0-0.171-0.034-0.301-0.104-0.389C109.98,15.776,109.881,15.732,109.749,15.732z
			 M113.318,15.75c-0.154,0-0.268,0.046-0.334,0.138c-0.066,0.092-0.102,0.244-0.102,0.456v0.512h0.857v-0.512
			c0-0.212-0.034-0.364-0.102-0.456C113.573,15.795,113.466,15.75,113.318,15.75z M115.956,13.816c0-1.222-1.034-2.214-2.31-2.214
			c-1.82-0.073-3.685-0.106-5.582-0.103c-1.899-0.004-3.764,0.029-5.582,0.103c-1.275,0-2.312,0.992-2.312,2.214
			c-0.075,0.969-0.108,1.937-0.106,2.904c-0.002,0.969,0.031,1.938,0.106,2.905c0,1.222,1.034,2.214,2.312,2.214
			c1.818,0.073,3.683,0.106,5.582,0.103c1.897,0.004,3.762-0.029,5.582-0.103c1.273,0,2.31-0.992,2.31-2.214
			c0.077-0.969,0.11-1.937,0.106-2.905C116.066,15.752,116.033,14.785,115.956,13.816z M103.529,20.053h-1.094v-5.866h-1.131v-0.995
			h3.354v0.995h-1.133v5.866H103.529z M107.417,20.053h-0.972v-0.559c-0.178,0.205-0.363,0.362-0.559,0.47
			c-0.193,0.107-0.382,0.162-0.562,0.162c-0.225,0-0.393-0.075-0.508-0.227c-0.112-0.15-0.17-0.376-0.17-0.678v-4.23h0.971v3.88
			c0,0.12,0.021,0.207,0.061,0.261c0.041,0.054,0.107,0.08,0.198,0.08c0.071,0,0.161-0.035,0.271-0.106
			c0.11-0.071,0.209-0.162,0.302-0.272v-3.842h0.971L107.417,20.053L107.417,20.053z M111.152,19.004
			c0,0.359-0.075,0.635-0.229,0.826c-0.149,0.191-0.371,0.286-0.657,0.286c-0.189,0-0.358-0.037-0.509-0.11
			c-0.147-0.074-0.286-0.188-0.415-0.343v0.39h-0.979v-6.861h0.979v2.209c0.133-0.155,0.271-0.272,0.417-0.353
			c0.147-0.081,0.298-0.121,0.446-0.121c0.309,0,0.542,0.108,0.704,0.324c0.159,0.217,0.241,0.531,0.241,0.945v2.808H111.152z
			 M114.741,17.641h-1.856v0.954c0,0.267,0.032,0.451,0.096,0.554c0.064,0.104,0.174,0.154,0.328,0.154
			c0.16,0,0.272-0.043,0.338-0.13c0.064-0.087,0.098-0.279,0.098-0.578v-0.352h0.999v0.381c0,0.519-0.122,0.909-0.365,1.172
			c-0.243,0.263-0.604,0.394-1.09,0.394c-0.435,0-0.774-0.139-1.024-0.417s-0.375-0.661-0.375-1.148v-2.272
			c0-0.439,0.137-0.797,0.41-1.073c0.274-0.276,0.629-0.415,1.062-0.415c0.445,0,0.785,0.128,1.022,0.384
			c0.239,0.256,0.358,0.624,0.358,1.104L114.741,17.641L114.741,17.641z M105.907,8.836c0,0.531,0.157,0.954,0.473,1.269
			c0.313,0.313,0.733,0.471,1.259,0.471c0.545,0,0.973-0.151,1.282-0.456c0.312-0.305,0.468-0.725,0.468-1.26V5.631
			c0-0.477-0.16-0.866-0.477-1.169c-0.316-0.303-0.723-0.454-1.219-0.454c-0.547,0-0.979,0.144-1.303,0.431
			c-0.322,0.287-0.483,0.673-0.483,1.157V8.836z M107.143,5.549c0-0.137,0.045-0.247,0.137-0.331
			c0.093-0.084,0.209-0.126,0.355-0.126c0.158,0,0.286,0.042,0.385,0.126s0.146,0.194,0.146,0.331v3.404
			c0,0.168-0.048,0.3-0.145,0.396c-0.096,0.096-0.225,0.144-0.388,0.144c-0.157,0-0.28-0.047-0.364-0.141
			c-0.086-0.094-0.129-0.227-0.129-0.398V5.549H107.143z"/>
	</g>
</g>
<path d="M132.665,21.595c-2.921,0-4.539-1.442-4.539-4.386V9.966h-1.899V7.658c2.836,0,3.574-2.972,3.801-5.366h2.811v5.366h3.49
	v2.308h-3.49v7.936c0,0.606,0.312,1.097,0.965,1.097c1.077,0,2-0.13,2-1.456h2.27C138.068,20.368,136.068,21.595,132.665,21.595z"/>
<path d="M158.859,20.407c-0.926,0.567-2.135,0.939-3.615,1.028c-3.299,0.197-6.112-1.52-6.246-3.719
	c-0.08-1.31,0.691-2.224,1.768-2.288c0.948-0.057,1.744,0.665,1.803,1.604c0.025,0.42-0.096,0.898-0.476,1.269
	c0.583,0.511,1.755,0.788,3.153,0.704c1.725-0.104,2.883-0.842,2.798-2.226c-0.067-1.112-1.008-1.726-2.969-2.624
	c-1.986-0.898-4.099-2.211-4.257-4.805c-0.145-2.348,1.871-4.675,5.646-4.9c3.397-0.203,5.618,1.648,5.722,3.328
	c0.073,1.211-0.564,2.241-1.74,2.311c-0.948,0.058-1.743-0.639-1.803-1.578c-0.022-0.396,0.075-0.823,0.379-1.188
	c-0.242-0.283-1.16-0.526-2.358-0.455c-1.925,0.115-2.894,1.091-2.833,2.055c0.077,1.284,1.354,2.052,3.082,2.841
	c2.062,0.943,4.001,2.266,4.145,4.588c0.01,0.183,0.008,0.363-0.004,0.542c-1.322,0.175-2.351,1.287-2.351,2.643
	C158.7,19.843,158.764,20.133,158.859,20.407z M161.409,21.106c-0.845,0-1.528-0.654-1.578-1.477
	c-0.003-0.031-0.011-0.062-0.011-0.094c0-0.655,0.408-1.217,0.986-1.452c0.188-0.075,0.389-0.118,0.603-0.118
	c0.876,0,1.588,0.704,1.588,1.57C162.997,20.401,162.285,21.106,161.409,21.106z"/>
<path d="M278.492,7.026c-2.057-2.058-5.406-2.058-7.465,0v0.001c-2.061,2.058-2.061,5.407,0,7.465
	c1.68,1.68,4.218,1.987,6.214,0.926l3.1,3.099l2.177-2.177l-3.097-3.097c0.403-0.755,0.618-1.604,0.618-2.484
	C280.039,9.349,279.489,8.023,278.492,7.026z M277.213,13.212c-1.354,1.354-3.551,1.355-4.906,0c-1.354-1.354-1.354-3.551,0-4.905
	c1.355-1.354,3.551-1.355,4.906,0C278.566,9.661,278.566,11.857,277.213,13.212z"/>
<path d="M210.542,6.194l-0.692-0.693l-5.808,5.806l-5.806-5.806l-0.693,0.693L203.35,12l-5.807,5.806l0.693,0.693l5.806-5.806
	l5.808,5.806l0.692-0.693L204.734,12L210.542,6.194z"/>
<path d="M172.745,2.743v19.009h15.007V2.743H172.745z M179.236,9.421h-5.506l5.506-5.713V9.421z"/>
<path d="M227.562,15.512l-5.713-5.713c-0.234-0.236-0.234-0.605,0-0.841c0.233-0.235,0.604-0.235,0.84,0L228,14.234l5.275-5.276
	c0.233-0.235,0.604-0.235,0.875,0c0.233,0.235,0.233,0.604,0,0.841l-5.748,5.713c-0.102,0.134-0.27,0.201-0.402,0.201
	C227.832,15.713,227.664,15.646,227.562,15.512z"/>
<path d="M258.311,12.454l-5.689,5.866c-0.232,0.241-0.604,0.241-0.836,0c-0.234-0.242-0.234-0.621,0-0.863l4.65-4.83h-10.344
	c-0.336,0-0.604-0.276-0.604-0.621c0-0.345,0.268-0.621,0.604-0.621h10.344l-4.65-4.796c-0.234-0.242-0.234-0.621,0-0.897
	c0.232-0.242,0.604-0.242,0.836,0l5.689,5.9c0.135,0.104,0.201,0.276,0.201,0.414C258.512,12.178,258.443,12.35,258.311,12.454z"/>
<path fill="#491178" d="M4.247,25.995H19.26v20.021h-1.027V31.109H8.431v14.879H4.247V25.995z M8.406,27.383v2.75h9.826v-2.75H8.406
	z M16.678,36.583v-0.616c-0.016-0.822-0.274-1.525-0.776-2.107s-1.12-0.873-1.853-0.873c-0.908,0-1.642,0.273-2.199,0.822
	c0.589-0.377,1.183-0.312,1.78,0.191c0.598,0.506,0.896,1.161,0.896,1.967v0.334v0.282v9.433h2.151v-9.433H16.678z"/>
<path fill="#491178" d="M26,41.703l5.839-6.197L26,29.805V41.703z M39.088,36.557l-3.102,3.041l-3.046-2.979l-5.84,6.168h17.8
	L39.088,36.557z M27.412,29.102l8.575,8.447l8.574-8.447H27.412z M40.189,35.477L46,41.703V29.805L40.189,35.477z"/>
<path fill="#491178" d="M60.089,32.531v-1.57c0-0.881,0.081-1.432,1.326-1.432c0.46,0,1.19,0.084,1.731,0.193l0.487-3.109
	c-1.056-0.221-1.867-0.387-2.977-0.387c-3.194,0-4.466,1.541-4.466,4.295v2.01h-2.003v3.248h2.003v9.881h3.897v-9.881h2.842
	l0.271-3.248H60.089z"/>
<path fill="#491178" d="M93.738,29.939c-0.7,0.314-1.453,0.527-2.243,0.625c0.807-0.49,1.426-1.271,1.717-2.197
	c-0.754,0.455-1.59,0.787-2.479,0.965c-0.712-0.771-1.728-1.254-2.851-1.254c-2.156,0-3.905,1.777-3.905,3.971
	c0,0.311,0.035,0.615,0.102,0.904c-3.245-0.164-6.123-1.746-8.049-4.148c-0.337,0.586-0.529,1.27-0.529,1.996
	c0,1.379,0.689,2.594,1.737,3.307c-0.64-0.021-1.242-0.197-1.769-0.498c0,0.02,0,0.033,0,0.053c0,1.924,1.346,3.527,3.133,3.896
	c-0.328,0.09-0.673,0.139-1.029,0.139c-0.252,0-0.496-0.025-0.734-0.07c0.497,1.576,1.938,2.725,3.647,2.758
	c-1.337,1.064-3.021,1.699-4.851,1.699c-0.315,0-0.626-0.018-0.931-0.055c1.729,1.127,3.78,1.783,5.985,1.783
	c7.184,0,11.111-6.053,11.111-11.301c0-0.172-0.004-0.344-0.011-0.514C92.552,31.436,93.214,30.736,93.738,29.939z"/>
<g>
	<g>
		<path fill="#491178" d="M111.242,34.508c0.226,0,0.457-0.066,0.695-0.199c0.237-0.133,0.47-0.326,0.688-0.58v0.689h1.198v-6.252
			h-1.198v4.746c-0.11,0.137-0.235,0.248-0.371,0.336c-0.135,0.088-0.244,0.133-0.334,0.133c-0.11,0-0.192-0.033-0.244-0.1
			c-0.05-0.066-0.073-0.174-0.073-0.322v-4.793h-1.199v5.227c0,0.371,0.07,0.65,0.211,0.836
			C110.757,34.416,110.965,34.508,111.242,34.508z M103.047,34.418h1.352v-3.516l1.57-4.959h-1.371l-0.836,3.387h-0.085
			l-0.876-3.387h-1.359l1.605,5.117V34.418z M109.749,39.732c-0.069,0-0.138,0.016-0.205,0.049s-0.134,0.084-0.2,0.154v3.152
			c0.079,0.082,0.156,0.143,0.23,0.18s0.152,0.055,0.234,0.055c0.116,0,0.205-0.035,0.262-0.107c0.056-0.07,0.084-0.188,0.084-0.348
			v-2.613c0-0.172-0.034-0.301-0.104-0.389C109.98,39.775,109.881,39.732,109.749,39.732z M113.318,39.75
			c-0.154,0-0.268,0.045-0.334,0.137s-0.102,0.244-0.102,0.457v0.512h0.857v-0.512c0-0.213-0.034-0.365-0.102-0.457
			C113.573,39.795,113.466,39.75,113.318,39.75z M115.956,37.816c0-1.225-1.034-2.215-2.31-2.215
			c-1.82-0.072-3.685-0.105-5.582-0.104c-1.899-0.004-3.764,0.027-5.582,0.104c-1.275,0-2.312,0.99-2.312,2.215
			c-0.075,0.969-0.108,1.936-0.106,2.902c-0.002,0.971,0.031,1.938,0.106,2.904c0,1.225,1.034,2.215,2.312,2.215
			c1.818,0.072,3.683,0.104,5.582,0.104c1.897,0.004,3.762-0.029,5.582-0.104c1.273,0,2.31-0.99,2.31-2.215
			c0.077-0.969,0.11-1.938,0.106-2.904C116.066,39.752,116.033,38.785,115.956,37.816z M103.529,44.053h-1.094v-5.865h-1.131v-0.996
			h3.354v0.996h-1.133v5.865H103.529z M107.417,44.053h-0.972v-0.559c-0.178,0.205-0.363,0.363-0.559,0.471
			c-0.193,0.107-0.382,0.162-0.562,0.162c-0.225,0-0.393-0.076-0.508-0.227c-0.112-0.15-0.17-0.377-0.17-0.678v-4.23h0.971v3.879
			c0,0.121,0.021,0.207,0.061,0.262c0.041,0.053,0.107,0.08,0.198,0.08c0.071,0,0.161-0.035,0.271-0.107
			c0.109-0.068,0.209-0.162,0.302-0.271v-3.842h0.971L107.417,44.053L107.417,44.053z M111.152,43.004
			c0,0.359-0.075,0.635-0.229,0.826c-0.149,0.191-0.371,0.287-0.657,0.287c-0.189,0-0.358-0.037-0.509-0.111
			c-0.147-0.074-0.286-0.188-0.415-0.342v0.389h-0.979v-6.861h0.979V39.4c0.133-0.154,0.271-0.271,0.417-0.354
			c0.147-0.082,0.298-0.121,0.446-0.121c0.309,0,0.542,0.107,0.704,0.324c0.159,0.217,0.241,0.531,0.241,0.943v2.811H111.152z
			 M114.741,41.641h-1.856v0.955c0,0.266,0.032,0.451,0.096,0.553c0.064,0.104,0.174,0.154,0.328,0.154
			c0.16,0,0.272-0.043,0.338-0.129c0.063-0.088,0.098-0.279,0.098-0.578v-0.352h0.999v0.381c0,0.518-0.122,0.908-0.365,1.172
			c-0.243,0.262-0.604,0.393-1.09,0.393c-0.435,0-0.774-0.139-1.024-0.416s-0.375-0.662-0.375-1.146v-2.271
			c0-0.439,0.137-0.797,0.41-1.072c0.274-0.277,0.629-0.416,1.062-0.416c0.445,0,0.785,0.129,1.022,0.385
			c0.239,0.256,0.358,0.623,0.358,1.104L114.741,41.641L114.741,41.641z M105.907,32.836c0,0.531,0.157,0.955,0.473,1.27
			c0.313,0.312,0.733,0.473,1.259,0.473c0.545,0,0.973-0.152,1.282-0.457c0.312-0.307,0.468-0.727,0.468-1.262v-3.229
			c0-0.477-0.16-0.865-0.477-1.168s-0.723-0.455-1.219-0.455c-0.547,0-0.979,0.145-1.303,0.432
			c-0.322,0.287-0.483,0.672-0.483,1.156V32.836z M107.143,29.549c0-0.137,0.045-0.246,0.137-0.33
			c0.093-0.084,0.209-0.127,0.355-0.127c0.158,0,0.286,0.043,0.385,0.127s0.146,0.193,0.146,0.33v3.404
			c0,0.168-0.048,0.301-0.145,0.396c-0.096,0.094-0.225,0.143-0.388,0.143c-0.157,0-0.28-0.047-0.364-0.141
			c-0.086-0.096-0.129-0.229-0.129-0.398v-3.404H107.143z"/>
	</g>
</g>
<path fill="#491178" d="M132.665,45.596c-2.921,0-4.539-1.443-4.539-4.387v-7.243h-1.899v-2.308c2.836,0,3.574-2.973,3.801-5.366
	h2.811v5.366h3.49v2.308h-3.49v7.937c0,0.605,0.312,1.098,0.965,1.098c1.077,0,2-0.13,2-1.456h2.27
	C138.068,44.368,136.068,45.596,132.665,45.596z"/>
<path fill="#491178" d="M158.859,44.407c-0.926,0.567-2.135,0.938-3.615,1.028c-3.299,0.195-6.112-1.521-6.246-3.721
	c-0.08-1.311,0.691-2.224,1.768-2.288c0.948-0.057,1.744,0.665,1.803,1.604c0.025,0.42-0.096,0.896-0.476,1.269
	c0.583,0.513,1.755,0.788,3.153,0.704c1.725-0.104,2.883-0.842,2.798-2.227c-0.067-1.111-1.008-1.727-2.969-2.623
	c-1.986-0.898-4.099-2.213-4.257-4.807c-0.145-2.348,1.871-4.675,5.646-4.898c3.397-0.203,5.618,1.646,5.722,3.326
	c0.073,1.213-0.564,2.242-1.74,2.312c-0.948,0.059-1.743-0.639-1.803-1.578c-0.022-0.396,0.075-0.822,0.379-1.188
	c-0.242-0.283-1.16-0.526-2.358-0.455c-1.925,0.113-2.894,1.091-2.833,2.055c0.077,1.284,1.354,2.053,3.082,2.842
	c2.062,0.942,4.001,2.266,4.145,4.588c0.01,0.184,0.008,0.362-0.004,0.543c-1.322,0.174-2.351,1.287-2.351,2.643
	C158.7,43.843,158.764,44.133,158.859,44.407z M161.409,45.105c-0.845,0-1.528-0.653-1.578-1.478
	c-0.003-0.03-0.011-0.062-0.011-0.094c0-0.655,0.408-1.218,0.986-1.452c0.188-0.075,0.389-0.118,0.603-0.118
	c0.876,0,1.588,0.704,1.588,1.57S162.285,45.105,161.409,45.105z"/>
<path fill="#491178" d="M278.492,31.025c-2.057-2.059-5.406-2.059-7.465,0v0.002c-2.061,2.058-2.061,5.406,0,7.465
	c1.68,1.68,4.218,1.986,6.214,0.926l3.1,3.1l2.177-2.178l-3.097-3.097c0.403-0.755,0.618-1.604,0.618-2.483
	C280.039,33.35,279.489,32.023,278.492,31.025z M277.213,37.212c-1.354,1.354-3.551,1.354-4.906,0c-1.354-1.354-1.354-3.551,0-4.905
	c1.355-1.354,3.551-1.354,4.906,0C278.566,33.661,278.566,35.857,277.213,37.212z"/>
<path fill="#491178" d="M210.542,30.193l-0.692-0.692l-5.808,5.806l-5.806-5.806l-0.693,0.692L203.35,36l-5.807,5.807l0.693,0.693
	l5.806-5.807l5.808,5.807l0.692-0.693L204.734,36L210.542,30.193z"/>
<path fill="#491178" d="M172.745,26.743v19.009h15.007V26.743H172.745z M179.236,33.421h-5.506l5.506-5.713V33.421z"/>
<path fill="#491178" d="M227.562,39.512l-5.713-5.713c-0.234-0.236-0.234-0.605,0-0.841c0.233-0.235,0.604-0.235,0.84,0L228,38.234
	l5.275-5.276c0.233-0.235,0.604-0.235,0.875,0c0.233,0.235,0.233,0.604,0,0.841l-5.748,5.713c-0.102,0.135-0.27,0.201-0.402,0.201
	C227.832,39.713,227.664,39.646,227.562,39.512z"/>
<path fill="#491178" d="M258.311,36.453l-5.689,5.867c-0.232,0.24-0.604,0.24-0.836,0c-0.234-0.242-0.234-0.621,0-0.863l4.65-4.83
	h-10.344c-0.336,0-0.604-0.277-0.604-0.621c0-0.346,0.268-0.621,0.604-0.621h10.344l-4.65-4.797c-0.234-0.242-0.234-0.621,0-0.896
	c0.232-0.24,0.604-0.24,0.836,0l5.689,5.9c0.135,0.104,0.201,0.275,0.201,0.414C258.512,36.178,258.443,36.35,258.311,36.453z"/>
<path fill="#FFFFFF" d="M4.247,49.995H19.26v20.021h-1.027V55.109H8.431v14.879H4.247V49.995z M8.406,51.383v2.75h9.826v-2.75H8.406
	z M16.678,60.583v-0.616c-0.016-0.822-0.274-1.525-0.776-2.107s-1.12-0.873-1.853-0.873c-0.908,0-1.642,0.273-2.199,0.822
	c0.589-0.377,1.183-0.312,1.78,0.191c0.598,0.506,0.896,1.161,0.896,1.967v0.334v0.282v9.433h2.151v-9.433H16.678z"/>
<path fill="#FFFFFF" d="M26,65.703l5.839-6.197L26,53.805V65.703z M39.088,60.557l-3.102,3.041l-3.046-2.979l-5.84,6.168h17.8
	L39.088,60.557z M27.412,53.102l8.575,8.447l8.574-8.447H27.412z M40.189,59.477L46,65.703V53.805L40.189,59.477z"/>
<path fill="#FFFFFF" d="M60.089,56.531v-1.57c0-0.881,0.081-1.432,1.326-1.432c0.46,0,1.19,0.084,1.731,0.193l0.487-3.109
	c-1.056-0.221-1.867-0.387-2.977-0.387c-3.194,0-4.466,1.541-4.466,4.295v2.01h-2.003v3.248h2.003v9.881h3.897v-9.881h2.842
	l0.271-3.248H60.089z"/>
<path fill="#FFFFFF" d="M93.738,53.939c-0.7,0.314-1.453,0.527-2.243,0.625c0.807-0.49,1.426-1.271,1.717-2.197
	c-0.754,0.455-1.59,0.787-2.479,0.965c-0.712-0.771-1.728-1.254-2.851-1.254c-2.156,0-3.905,1.777-3.905,3.971
	c0,0.311,0.035,0.615,0.102,0.904c-3.245-0.164-6.123-1.746-8.049-4.148c-0.337,0.586-0.529,1.27-0.529,1.996
	c0,1.379,0.689,2.594,1.737,3.307c-0.64-0.021-1.242-0.197-1.769-0.498c0,0.02,0,0.033,0,0.053c0,1.924,1.346,3.527,3.133,3.896
	c-0.328,0.09-0.673,0.139-1.029,0.139c-0.252,0-0.496-0.025-0.734-0.07c0.497,1.576,1.938,2.725,3.647,2.758
	c-1.337,1.064-3.021,1.699-4.851,1.699c-0.315,0-0.626-0.018-0.931-0.055c1.729,1.127,3.78,1.783,5.985,1.783
	c7.184,0,11.111-6.053,11.111-11.301c0-0.172-0.004-0.344-0.011-0.514C92.552,55.436,93.214,54.736,93.738,53.939z"/>
<g>
	<g>
		<path fill="#FFFFFF" d="M111.242,58.508c0.226,0,0.457-0.066,0.695-0.199c0.237-0.133,0.47-0.326,0.688-0.58v0.689h1.198v-6.252
			h-1.198v4.746c-0.11,0.137-0.235,0.248-0.371,0.336c-0.135,0.088-0.244,0.133-0.334,0.133c-0.11,0-0.192-0.033-0.244-0.1
			c-0.05-0.066-0.073-0.174-0.073-0.322v-4.793h-1.199v5.227c0,0.371,0.07,0.65,0.211,0.836
			C110.757,58.416,110.965,58.508,111.242,58.508z M103.047,58.418h1.352v-3.516l1.57-4.959h-1.371l-0.836,3.387h-0.085
			l-0.876-3.387h-1.359l1.605,5.117V58.418z M109.749,63.732c-0.069,0-0.138,0.016-0.205,0.049s-0.134,0.084-0.2,0.154v3.152
			c0.079,0.082,0.156,0.143,0.23,0.18s0.152,0.055,0.234,0.055c0.116,0,0.205-0.035,0.262-0.107c0.056-0.07,0.084-0.188,0.084-0.348
			v-2.613c0-0.172-0.034-0.301-0.104-0.389C109.98,63.775,109.881,63.732,109.749,63.732z M113.318,63.75
			c-0.154,0-0.268,0.045-0.334,0.137s-0.102,0.244-0.102,0.457v0.512h0.857v-0.512c0-0.213-0.034-0.365-0.102-0.457
			C113.573,63.795,113.466,63.75,113.318,63.75z M115.956,61.816c0-1.225-1.034-2.215-2.31-2.215
			c-1.82-0.072-3.685-0.105-5.582-0.104c-1.899-0.004-3.764,0.027-5.582,0.104c-1.275,0-2.312,0.99-2.312,2.215
			c-0.075,0.969-0.108,1.936-0.106,2.902c-0.002,0.971,0.031,1.938,0.106,2.904c0,1.225,1.034,2.215,2.312,2.215
			c1.818,0.072,3.683,0.104,5.582,0.104c1.897,0.004,3.762-0.029,5.582-0.104c1.273,0,2.31-0.99,2.31-2.215
			c0.077-0.969,0.11-1.938,0.106-2.904C116.066,63.752,116.033,62.785,115.956,61.816z M103.529,68.053h-1.094v-5.865h-1.131v-0.996
			h3.354v0.996h-1.133v5.865H103.529z M107.417,68.053h-0.972v-0.559c-0.178,0.205-0.363,0.363-0.559,0.471
			c-0.193,0.107-0.382,0.162-0.562,0.162c-0.225,0-0.393-0.076-0.508-0.227c-0.112-0.15-0.17-0.377-0.17-0.678v-4.23h0.971v3.879
			c0,0.121,0.021,0.207,0.061,0.262c0.041,0.053,0.107,0.08,0.198,0.08c0.071,0,0.161-0.035,0.271-0.107
			c0.109-0.068,0.209-0.162,0.302-0.271v-3.842h0.971L107.417,68.053L107.417,68.053z M111.152,67.004
			c0,0.359-0.075,0.635-0.229,0.826c-0.149,0.191-0.371,0.287-0.657,0.287c-0.189,0-0.358-0.037-0.509-0.111
			c-0.147-0.074-0.286-0.188-0.415-0.342v0.389h-0.979v-6.861h0.979V63.4c0.133-0.154,0.271-0.271,0.417-0.354
			c0.147-0.082,0.298-0.121,0.446-0.121c0.309,0,0.542,0.107,0.704,0.324c0.159,0.217,0.241,0.531,0.241,0.943v2.811H111.152z
			 M114.741,65.641h-1.856v0.955c0,0.266,0.032,0.451,0.096,0.553c0.064,0.104,0.174,0.154,0.328,0.154
			c0.16,0,0.272-0.043,0.338-0.129c0.063-0.088,0.098-0.279,0.098-0.578v-0.352h0.999v0.381c0,0.518-0.122,0.908-0.365,1.172
			c-0.243,0.262-0.604,0.393-1.09,0.393c-0.435,0-0.774-0.139-1.024-0.416s-0.375-0.662-0.375-1.146v-2.271
			c0-0.439,0.137-0.797,0.41-1.072c0.274-0.277,0.629-0.416,1.062-0.416c0.445,0,0.785,0.129,1.022,0.385
			c0.239,0.256,0.358,0.623,0.358,1.104L114.741,65.641L114.741,65.641z M105.907,56.836c0,0.531,0.157,0.955,0.473,1.27
			c0.313,0.312,0.733,0.473,1.259,0.473c0.545,0,0.973-0.152,1.282-0.457c0.312-0.307,0.468-0.727,0.468-1.262v-3.229
			c0-0.477-0.16-0.865-0.477-1.168s-0.723-0.455-1.219-0.455c-0.547,0-0.979,0.145-1.303,0.432
			c-0.322,0.287-0.483,0.672-0.483,1.156V56.836z M107.143,53.549c0-0.137,0.045-0.246,0.137-0.33
			c0.093-0.084,0.209-0.127,0.355-0.127c0.158,0,0.286,0.043,0.385,0.127s0.146,0.193,0.146,0.33v3.404
			c0,0.168-0.048,0.301-0.145,0.396c-0.096,0.094-0.225,0.143-0.388,0.143c-0.157,0-0.28-0.047-0.364-0.141
			c-0.086-0.096-0.129-0.229-0.129-0.398v-3.404H107.143z"/>
	</g>
</g>
<path fill="#FFFFFF" d="M132.665,69.596c-2.921,0-4.539-1.443-4.539-4.387v-7.243h-1.899v-2.308c2.836,0,3.574-2.973,3.801-5.366
	h2.811v5.366h3.49v2.308h-3.49v7.937c0,0.605,0.312,1.098,0.965,1.098c1.077,0,2-0.13,2-1.456h2.27
	C138.068,68.368,136.068,69.596,132.665,69.596z"/>
<path fill="#FFFFFF" d="M158.859,68.407c-0.926,0.567-2.135,0.938-3.615,1.028c-3.299,0.195-6.112-1.521-6.246-3.721
	c-0.08-1.311,0.691-2.224,1.768-2.288c0.948-0.057,1.744,0.665,1.803,1.604c0.025,0.42-0.096,0.896-0.476,1.269
	c0.583,0.513,1.755,0.788,3.153,0.704c1.725-0.104,2.883-0.842,2.798-2.227c-0.067-1.111-1.008-1.727-2.969-2.625
	c-1.986-0.896-4.099-2.211-4.257-4.805c-0.145-2.348,1.871-4.675,5.646-4.898c3.397-0.203,5.618,1.646,5.722,3.326
	c0.073,1.213-0.564,2.242-1.74,2.312c-0.948,0.059-1.743-0.639-1.803-1.578c-0.022-0.396,0.075-0.822,0.379-1.188
	c-0.242-0.283-1.16-0.526-2.358-0.455c-1.925,0.113-2.894,1.091-2.833,2.055c0.077,1.284,1.354,2.053,3.082,2.842
	c2.062,0.942,4.001,2.266,4.145,4.588c0.01,0.184,0.008,0.362-0.004,0.543c-1.322,0.174-2.351,1.287-2.351,2.643
	C158.7,67.843,158.764,68.133,158.859,68.407z M161.409,69.105c-0.845,0-1.528-0.653-1.578-1.478
	c-0.003-0.03-0.011-0.062-0.011-0.094c0-0.655,0.408-1.218,0.986-1.452c0.188-0.075,0.389-0.118,0.603-0.118
	c0.876,0,1.588,0.704,1.588,1.57S162.285,69.105,161.409,69.105z"/>
<path fill="#FFFFFF" d="M278.492,55.025c-2.057-2.059-5.406-2.059-7.465,0v0.002c-2.061,2.058-2.061,5.406,0,7.465
	c1.68,1.68,4.218,1.986,6.214,0.926l3.1,3.1l2.177-2.178l-3.097-3.097c0.403-0.755,0.618-1.604,0.618-2.483
	C280.039,57.35,279.489,56.023,278.492,55.025z M277.213,61.212c-1.354,1.354-3.551,1.354-4.906,0c-1.354-1.354-1.354-3.551,0-4.905
	c1.355-1.354,3.551-1.354,4.906,0C278.566,57.661,278.566,59.857,277.213,61.212z"/>
<path fill="#FFFFFF" d="M210.542,54.193l-0.692-0.692l-5.808,5.806l-5.806-5.806l-0.693,0.692L203.35,60l-5.807,5.807l0.693,0.693
	l5.806-5.807l5.808,5.807l0.692-0.693L204.734,60L210.542,54.193z"/>
<path fill="#FFFFFF" d="M172.745,50.743v19.009h15.007V50.743H172.745z M179.236,57.421h-5.506l5.506-5.713V57.421z"/>
<path fill="#FFFFFF" d="M227.562,63.512l-5.713-5.713c-0.234-0.236-0.234-0.605,0-0.841c0.233-0.235,0.604-0.235,0.84,0L228,62.234
	l5.275-5.276c0.233-0.235,0.604-0.235,0.875,0c0.233,0.235,0.233,0.604,0,0.841l-5.748,5.713c-0.102,0.135-0.27,0.201-0.402,0.201
	C227.832,63.713,227.664,63.646,227.562,63.512z"/>
<path fill="#FFFFFF" d="M258.311,60.453l-5.689,5.867c-0.232,0.24-0.604,0.24-0.836,0c-0.234-0.242-0.234-0.621,0-0.863l4.65-4.83
	h-10.344c-0.336,0-0.604-0.277-0.604-0.621c0-0.346,0.268-0.621,0.604-0.621h10.344l-4.65-4.797c-0.234-0.242-0.234-0.621,0-0.896
	c0.232-0.24,0.604-0.24,0.836,0l5.689,5.9c0.135,0.104,0.201,0.275,0.201,0.414C258.512,60.178,258.443,60.35,258.311,60.453z"/>
<path d="M302.805,12.447l-4.908,5.842c-0.201,0.24-0.52,0.24-0.721,0c-0.203-0.241-0.203-0.619,0-0.859l4.533-5.43l-4.533-5.394
	c-0.203-0.241-0.203-0.618,0-0.894c0.201-0.241,0.52-0.241,0.721,0l4.908,5.875c0.115,0.104,0.172,0.275,0.172,0.412
	C302.977,12.172,302.92,12.344,302.805,12.447z"/>
<path fill="#491178" d="M302.805,36.447l-4.908,5.842c-0.201,0.24-0.52,0.24-0.721,0c-0.203-0.242-0.203-0.619,0-0.859l4.533-5.43
	l-4.533-5.395c-0.203-0.24-0.203-0.617,0-0.894c0.201-0.241,0.52-0.241,0.721,0l4.908,5.875c0.115,0.104,0.172,0.274,0.172,0.412
	C302.977,36.172,302.92,36.344,302.805,36.447z"/>
<path fill="#FFFFFF" d="M302.805,60.447l-4.908,5.842c-0.201,0.24-0.52,0.24-0.721,0c-0.203-0.242-0.203-0.619,0-0.859l4.533-5.43
	l-4.533-5.395c-0.203-0.24-0.203-0.617,0-0.894c0.201-0.241,0.52-0.241,0.721,0l4.908,5.875c0.115,0.104,0.172,0.274,0.172,0.412
	C302.977,60.172,302.92,60.344,302.805,60.447z"/>
<g>
	<g>
		<rect x="316.5" y="7.5" width="14" height="2"/>
	</g>
	<g>
		<rect x="316.5" y="11.5" width="14" height="2"/>
	</g>
	<g>
		<rect x="316.5" y="15.5" width="14" height="2"/>
	</g>
</g>
<g>
	<g>
		<rect x="343" y="11" transform="matrix(0.7071 -0.7071 0.7071 0.7071 93.4496 249.5967)" width="9.999" height="2"/>
	</g>
	<g>
		<rect x="343" y="11" transform="matrix(-0.7071 -0.7072 0.7072 -0.7071 585.5703 266.5749)" width="10" height="2"/>
	</g>
</g>
<g>
	<g>
		
			<rect x="343.001" y="35" transform="matrix(0.7071 -0.7071 0.7071 0.7071 76.471 256.6173)" fill="#491178" width="9.999" height="2"/>
	</g>
	<g>
		
			<rect x="343.001" y="35" transform="matrix(-0.7071 -0.7071 0.7071 -0.7071 568.6173 307.529)" fill="#491178" width="9.999" height="2"/>
	</g>
</g>
<g>
	<g>
		
			<rect x="343.001" y="59" transform="matrix(0.7071 -0.7071 0.7071 0.7071 59.5004 263.6467)" fill="#FFFFFF" width="9.999" height="2"/>
	</g>
	<g>
		
			<rect x="343.001" y="59" transform="matrix(-0.7071 -0.7071 0.7071 -0.7071 551.6467 348.4996)" fill="#FFFFFF" width="9.999" height="2"/>
	</g>
</g>
<g>
	<g>
		<rect x="316.5" y="31.5" fill="#491178" width="14" height="2"/>
	</g>
	<g>
		<rect x="316.5" y="35.5" fill="#491178" width="14" height="2"/>
	</g>
	<g>
		<rect x="316.5" y="39.5" fill="#491178" width="14" height="2"/>
	</g>
</g>
<g>
	<g>
		<rect x="316.5" y="55.5" fill="#FFFFFF" width="14" height="2"/>
	</g>
	<g>
		<rect x="316.5" y="59.5" fill="#FFFFFF" width="14" height="2"/>
	</g>
	<g>
		<rect x="316.5" y="63.5" fill="#FFFFFF" width="14" height="2"/>
	</g>
</g>
</svg>
