<?xml version="1.0" encoding="utf-8"?>
<!-- Generator: Adobe Illustrator 18.0.0, SVG Export Plug-In . SVG Version: 6.00 Build 0)  -->
<!DOCTYPE svg PUBLIC "-//W3C//DTD SVG 1.1 Tiny//EN" "http://www.w3.org/Graphics/SVG/1.1/DTD/svg11-tiny.dtd">
<svg version="1.1" baseProfile="tiny" id="Layer_1" xmlns:sketch="http://www.bohemiancoding.com/sketch/ns"
	 xmlns="http://www.w3.org/2000/svg" xmlns:xlink="http://www.w3.org/1999/xlink" x="0px" y="0px" viewBox="0 362.6 609.6 78.5"
	 xml:space="preserve">
<path id="nyulibraries-logo" d="M277.6,424.6v-44.7h3.4v41.8h26.3v3.2h-29.7V424.6z M317.6,379.7v44.1h3.4v-44.1H317.6z
	 M353.3,423.8h-19.2v-43.9h18.4c8.7,0,14.4,4.2,14.4,10.8l0,0c0,6-3.9,8.9-7.6,10.5c5.3,1.3,10,4.5,10,10.5l0,0
	C369.3,419.3,363,423.8,353.3,423.8z M363.5,391c0-4.7-3.9-8.1-11-8.1h-15v17.3h14.7C358.8,400.2,363.5,397,363.5,391L363.5,391
	L363.5,391L363.5,391z M365.9,411.7c0-5.5-4.7-8.7-13.4-8.7h-15v17.6h16C361.2,420.9,365.9,417.5,365.9,411.7L365.9,411.7z
	 M411.6,423.8l-14.2-18.4H383v18.4h-3.4v-43.9h18.6c9.5,0,15.8,5.3,15.8,12.6l0,0c0,7.4-5.5,11.6-12.9,12.6l14.7,18.9h-4.2V423.8z
	 M410.8,392.5c0-6-4.7-9.7-12.6-9.7H383v20h15C405.3,402.8,410.8,398.8,410.8,392.5L410.8,392.5L410.8,392.5z M462.3,423.8
	l-5.5-12.3h-26l-5.5,12.3h-3.4l20.5-44.4h3.2l20.5,44.4H462.3z M443.6,383.1l-11.8,25.5h23.4L443.6,383.1z M506.7,423.8l-14.2-18.4
	H478v18.4h-3.4v-43.9h18.6c9.5,0,15.8,5.3,15.8,12.6l0,0c0,7.4-5.5,11.6-12.9,12.6l14.7,18.9L506.7,423.8L506.7,423.8z M506.1,392.5
	c0-6-4.7-9.7-12.6-9.7h-15.2v20h15C500.6,402.8,506.1,398.8,506.1,392.5L506.1,392.5L506.1,392.5z M520.3,379.7v44.1h3.4v-44.1
	H520.3z M537.9,423.8v-43.9h31.5v3.2h-28.4v17.3h25.5v2.9h-25.5v17.6h28.6v3.2L537.9,423.8L537.9,423.8z M595.2,424.6
	c-7.1,0-12.6-2.4-17.9-7.1l2.1-2.4c5,4.5,9.5,6.6,15.8,6.6c6.6,0,11.3-3.7,11.3-8.7l0,0c0-4.7-2.4-7.4-12.6-9.5
	c-10.5-2.1-15-5.8-15-12.3l0,0c0-6.6,6-11.6,14.2-11.6c6.6,0,10.8,1.8,15.2,5.3l-2.1,2.6c-4.2-3.7-8.4-5-13.1-5
	c-6.6,0-10.8,3.7-10.8,8.4l0,0c0,4.7,2.4,7.6,12.9,9.7c10.2,2.1,14.4,5.8,14.4,12.1l0,0C609.9,419.6,603.6,424.6,595.2,424.6z
	 M256.9,441.1v-78.5h-3.9v78.5H256.9z M99.3,379.1h9.2l21,27.6v-27.6h9.7v44.9h-8.4L109,395.4v28.6h-9.7V379.1L99.3,379.1z
	 M161.3,406.5l-17.3-27.3h11.6l10.8,18.1l11-18.1h11.3l-17.3,27.1v17.9h-10L161.3,406.5L161.3,406.5z M192.5,404.4v-25.2h9.7v25
	c0,7.1,3.7,11,9.5,11c6,0,9.5-3.7,9.5-10.5v-25.2h9.7v25c0,13.4-7.6,20-19.4,20C199.6,424.1,192.5,417.5,192.5,404.4z M78.5,441.1H0
	v-78.5h78.5V441.1z M36.5,431.9c0,0.5,1.3,0.8,1.6,0l2.6-21.8h-6.6L36.5,431.9L36.5,431.9z M43.1,405.4H31.8v3.4h11.3V405.4
	L43.1,405.4z M39.9,403.6c14.4,0.5,15.5-12.6,15.5-17.6c0-0.3-0.3-0.3-0.3,0c-0.5,1.1-2.4,4.7-7.4,6.8
	C43.1,394.9,40.2,399.4,39.9,403.6C39.7,403.6,39.9,403.6,39.9,403.6L39.9,403.6z M38.3,402.8c2.4-10.8,11-11.3,11.8-13.1
	c1.3-3.2-1.1-8.9-1.6-9.7h-0.3c-1.3,2.6-3.2,5.3-4.5,6.3C42,387.8,34.1,393.6,38.3,402.8C38.1,402.8,38.3,402.8,38.3,402.8
	L38.3,402.8z M36.8,403.3c-4.7-10.2,4.7-16.8,6.3-18.4c0.3-0.3,0.3-0.3,0.3-0.5c0-3.2-1.8-8.4-2.4-9.2h-0.3c-0.8,3.2-5.3,7.9-6,8.9
	C27.1,392.8,28.9,398.3,36.8,403.3L36.8,403.3L36.8,403.3z M34.7,403.6c-8.1-4.7-7.4-11.6-3.9-16.8c0,0,0-0.3,0-0.5
	c-0.3-1.3-1.6-4.2-2.1-5c-0.3-0.3-0.3-0.3-0.3,0c0,1.3-1.6,4.7-3.9,8.7C22.1,394.1,22.1,403.3,34.7,403.6
	C34.7,403.8,34.7,403.6,34.7,403.6L34.7,403.6z"/>
</svg>
