<?xml version="1.0" encoding="UTF-8"?>
<svg id="Layer_1" xmlns="http://www.w3.org/2000/svg" version="1.1" viewBox="0 0 168.73 42.24">
  <!-- Generator: Adobe Illustrator 29.5.1, SVG Export Plug-In . SVG Version: 2.1.0 Build 141)  -->
  <defs>
    <style>
      .st0 {
        fill: #330662;
      }

      .st1 {
        fill: #702b9d;
      }
    </style>
  </defs>
  <path class="st0" d="M47.33,10.92h4.95l7.91,12.59v-12.59h4.26v18.52h-4.95l-7.91-12.57v12.57h-4.26s0-18.52,0-18.52Z"/>
  <path class="st0" d="M72.6,22.9l-7.04-11.98h4.84l4.31,7.78,4.31-7.78h4.84l-7.01,11.9v6.61h-4.26v-6.53h.01Z"/>
  <path class="st0" d="M85,22.13v-11.22h4.26v11.14c0,2.62,1.06,3.99,3.73,3.99s3.76-1.38,3.76-3.99v-11.14h4.26v11.22c0,4.5-2.25,7.57-8.02,7.57s-7.99-3.07-7.99-7.57h0Z"/>
  <path class="st0" d="M107.03,10.92h6.72c4.02,0,6.43,1.88,6.43,5.69s-2.41,5.69-6.43,5.69h-4.63v7.14h-2.09s0-18.52,0-18.52ZM113.75,20.39c2.99,0,4.26-1.08,4.26-3.78s-1.27-3.78-4.26-3.78h-4.63v7.57h4.63Z"/>
  <path class="st0" d="M122.29,15.54h2.04v2.38c.71-1.72,2.35-2.65,4.34-2.65h1.14v1.85h-1.14c-2.17,0-4.34,1.03-4.34,4.36v7.94h-2.04v-13.89h0Z"/>
  <path class="st0" d="M130.07,22.48c0-4.39,2.3-7.2,6.61-7.2,3.89,0,6.3,2.51,6.3,7.2v.48h-10.74c.16,3.15,1.51,4.92,4.44,4.92,2.04,0,3.39-.79,4.31-2.49l1.85.74c-.9,2.28-2.99,3.57-6.16,3.57-4.23,0-6.61-2.83-6.61-7.22ZM140.78,21.21c-.34-2.72-1.88-4.13-4.26-4.13s-3.94,1.27-4.26,4.13h8.52,0Z"/>
  <path class="st0" d="M144.12,25.81l2.06-.4c.24,1.64,1.69,2.65,3.94,2.65s3.68-1.01,3.68-2.62c0-1.3-.63-1.85-2.3-2.06l-2.43-.32c-2.59-.34-4.07-1.48-4.07-3.78,0-2.49,2.04-3.99,5.24-3.99,2.78,0,4.55,1.35,4.92,3.28l-1.98.37c-.24-1.16-1.19-2.01-2.99-2.01-2.04,0-3.17.82-3.17,2.2,0,1.19.69,1.75,2.46,1.98l2.67.34c2.33.29,3.68,1.48,3.68,3.86,0,2.72-2.12,4.39-5.69,4.39-3.33,0-5.56-1.32-6-3.89h-.02Z"/>
  <path class="st0" d="M157.02,25.81l2.06-.4c.24,1.64,1.69,2.65,3.94,2.65s3.68-1.01,3.68-2.62c0-1.3-.63-1.85-2.3-2.06l-2.43-.32c-2.59-.34-4.07-1.48-4.07-3.78,0-2.49,2.04-3.99,5.24-3.99,2.78,0,4.55,1.35,4.92,3.28l-1.98.37c-.24-1.16-1.19-2.01-2.99-2.01-2.04,0-3.17.82-3.17,2.2,0,1.19.69,1.75,2.46,1.98l2.67.34c2.33.29,3.68,1.48,3.68,3.86,0,2.72-2.12,4.39-5.69,4.39-3.33,0-5.56-1.32-6-3.89h-.02Z"/>
  <path class="st1" d="M23.18,42.24v-21.37c0-3.67-3-6.68-6.67-6.69h-.02c-3.67,0-6.67,3.01-6.67,6.69v21.37h13.37,0Z"/>
  <rect class="st0" y="14.19" width="7.24" height="28.06"/>
  <rect class="st0" x="25.75" y="14.19" width="7.24" height="28.06"/>
  <rect class="st0" y="0" width="32.98" height="11.62"/>
</svg>