<?xml version="1.0" encoding="utf-8"?>
<!-- Generator: Adobe Illustrator 22.1.0, SVG Export Plug-In . SVG Version: 6.00 Build 0)  -->
<svg version="1.1" id="Layer_1" xmlns="http://www.w3.org/2000/svg" xmlns:xlink="http://www.w3.org/1999/xlink" x="0px" y="0px"
	 viewBox="0 0 287.3 48.3" style="enable-background:new 0 0 287.3 48.3;" xml:space="preserve">
<style type="text/css">
	.st0{fill:#FFFFFF;}
	.st1{fill:none;stroke:#000000;stroke-width:1.75;}
	.st2{display:none;fill:#FFFFFF;}
</style>
<rect x="0.9" y="0.9" class="st0" width="46.2" height="46.2"/>
<g>
	<rect x="0.9" y="0.9" class="st1" width="46.2" height="46.2"/>
</g>
<polyline class="st2" points="7.8,17.9 7.8,38.4 7.8,40.1 9.5,40.1 38.4,40.1 40.1,40.1 40.1,38.4 40.1,9.5 40.1,7.8 38.4,7.8 
	18.4,7.8 "/>
<polyline class="st1" points="7.8,17.9 7.8,38.4 7.8,40.1 9.5,40.1 38.4,40.1 40.1,40.1 40.1,38.4 40.1,9.5 40.1,7.8 38.4,7.8 
	18.4,7.8 "/>
<g>
	<path d="M60.1,20.8c-3.1,0-5.1-1.9-5.1-7.5c0-5.4,2-7.5,5.1-7.5c3.1,0,5.1,1.9,5.1,7.5C65.3,18.6,63.3,20.8,60.1,20.8z M60.1,8.3
		c-1.4,0-1.9,1.1-1.9,4.9c0,3.9,0.6,4.9,1.9,4.9c1.4,0,1.9-1.1,1.9-4.9C62.1,9.4,61.5,8.3,60.1,8.3z"/>
	<path d="M70.9,20.8c-0.4,0-0.8-0.1-1.2-0.2V25H67V9.4c0.6-0.1,1.8-0.2,2.8-0.2V10h0.1c0.6-0.7,1.3-1,2-1c1.8,0,3.2,1.3,3.2,5.7
		C75.1,19.1,73.2,20.8,70.9,20.8z M70.8,11.5c-0.4,0-0.8,0.2-1.1,0.4v6.2c0.2,0.2,0.6,0.2,0.9,0.2c1.1,0,1.6-0.9,1.6-3.6
		C72.2,12.1,71.7,11.5,70.8,11.5z"/>
	<path d="M83.9,15.7h-4.9v0.2c0,1.6,0.5,2.4,1.8,2.4c0.7,0,1.6-0.2,2.5-0.8c0.2,0.8,0.4,1.8,0.5,2.6c-0.9,0.5-2,0.8-3.1,0.8
		c-2.9,0-4.6-1.6-4.6-5.8c0-4.3,1.8-5.9,4.1-5.9c2.4,0,3.7,1.5,3.7,4.8C84,14.4,84,15.1,83.9,15.7z M80.3,11.1
		c-0.8,0-1.1,0.7-1.2,2.8h2.2c0-0.3,0-0.5,0-0.7C81.3,11.8,81.1,11.1,80.3,11.1z"/>
	<path d="M90.9,20.6v-7.7c0-0.9-0.2-1.3-0.9-1.3c-0.5,0-1,0.2-1.4,0.5v8.5h-2.8V9.4c0.6-0.1,2.1-0.2,2.8-0.2v0.9h0.1
		C89.4,9.3,90.1,9,91.1,9c1.6,0,2.6,1,2.6,3.5v8H90.9z"/>
	<path d="M106.3,20.8c-1,0-2.2-0.2-3.2-0.7c0.1-0.9,0.3-1.8,0.5-2.6c0.9,0.5,1.8,0.7,2.6,0.7c0.9,0,1.5-0.5,1.5-1.6
		c0-2.4-4.6-2.3-4.6-6.5c0-2.9,1.9-4.4,4.6-4.4c0.9,0,1.9,0.1,2.6,0.3c0,0.8-0.1,1.7-0.3,2.6c-0.8-0.3-1.7-0.4-2.4-0.4
		c-1,0-1.5,0.6-1.5,1.6c0,2.2,4.6,2.3,4.6,6.5C110.7,19.1,108.9,20.8,106.3,20.8z"/>
	<path d="M117.3,25v-5.2h-0.1c-0.7,0.8-1.3,1-2,1c-1.8,0-3.2-1.4-3.2-5.7c0-4.4,1.8-6,4.6-6c1.1,0,2.6,0.3,3.6,0.9V25H117.3z
		 M117.3,11.7c-0.2-0.1-0.6-0.2-0.9-0.2c-1.1,0-1.6,0.8-1.6,3.6c0,2.6,0.5,3.2,1.4,3.2c0.4,0,0.7-0.2,1-0.4V11.7z"/>
	<path d="M127.4,20.6v-0.8h-0.1c-0.8,0.8-1.4,1-2.4,1c-1.5,0-2.6-1-2.6-3.5V9.4c0.7-0.1,2-0.2,2.8-0.2V17c0,0.9,0.2,1.3,0.9,1.3
		c0.5,0,1-0.2,1.4-0.5V9.4c0.7-0.1,1.9-0.2,2.8-0.2v11.4H127.4z"/>
	<path d="M138.7,20.8c-0.9,0-1.5-0.3-1.8-1h-0.1c-0.8,0.7-1.4,1-2.3,1c-1.6,0-2.7-1-2.7-3.3c0-2.4,1.1-3.2,3.3-3.3l1.3-0.1v-2
		c-0.4-0.2-1-0.4-1.5-0.4c-0.7,0-1.4,0.2-2,0.5c-0.2-0.7-0.3-1.8-0.3-2.6c0.7-0.3,1.6-0.5,2.6-0.5c1.4,0,3,0.4,3.9,1.3v7.3
		c0,0.3,0.1,0.5,0.4,0.5h0.8v0.9C140.2,20.2,139.7,20.8,138.7,20.8z M136.4,15.8l-1,0.1c-0.7,0.1-1,0.4-1,1.5c0,1.1,0.3,1.3,0.9,1.3
		c0.3,0,0.6-0.1,1-0.3V15.8z"/>
	<path d="M146.8,12.1c-0.3-0.1-0.6-0.2-0.9-0.2c-0.5,0-1,0.1-1.6,0.6v8h-2.8V9.4c0.6-0.1,2.1-0.2,2.8-0.2v1.2h0.1
		c0.8-1.2,1.3-1.3,1.9-1.3c0.2,0,0.5,0,0.7,0.1C147,10.1,146.9,11.2,146.8,12.1z"/>
	<path d="M155.6,15.7h-4.9v0.2c0,1.6,0.5,2.4,1.8,2.4c0.7,0,1.6-0.2,2.5-0.8c0.2,0.8,0.4,1.8,0.5,2.6c-0.9,0.5-2,0.8-3.1,0.8
		c-2.9,0-4.6-1.6-4.6-5.8c0-4.3,1.8-5.9,4.1-5.9c2.4,0,3.7,1.5,3.7,4.8C155.7,14.4,155.6,15.1,155.6,15.7z M152,11.1
		c-0.8,0-1.1,0.7-1.2,2.8h2.2c0-0.3,0-0.5,0-0.7C153,11.8,152.8,11.1,152,11.1z"/>
</g>
<g>
	<path d="M62.7,43.7l-3.2-7.1L57.9,39v4.6h-1.7V29h1.7v7.6H58c0.5-1,1.1-2.3,1.7-3.2l2.9-4.5c0.6,0,1.4,0.1,1.8,0.2l-3.8,5.8
		c1.3,2.7,2.6,5.4,3.9,8.5C64.1,43.6,63.3,43.7,62.7,43.7z"/>
	<path d="M71.7,43.6v-8.2c0-1.2-0.4-1.8-1.5-1.8c-0.8,0-1.5,0.3-2.2,0.9v9.2h-1.6V32.3c0.3-0.1,1.2-0.1,1.6-0.1v1h0.1
		c0.8-0.8,1.6-1.1,2.6-1.1c1.4,0,2.6,0.7,2.6,3.3v8.2H71.7z"/>
	<path d="M79.3,43.8c-2.3,0-3.8-1.5-3.8-5.9c0-4.4,1.6-5.9,3.8-5.9c2.3,0,3.8,1.5,3.8,5.9C83.1,42.3,81.4,43.8,79.3,43.8z
		 M79.3,33.5c-1.4,0-2.1,1-2.1,4.4c0,3.4,0.7,4.4,2.1,4.4c1.4,0,2.1-1,2.1-4.4C81.4,34.5,80.7,33.5,79.3,33.5z"/>
	<path d="M94.3,43.6h-1.7l-1.8-7.9c-0.1-0.4-0.2-1-0.2-1.6h-0.1c0,0.5-0.2,1.1-0.2,1.6l-1.8,7.9h-1.7c-0.8-3.7-1.5-7.5-2.1-11.2
		c0.4-0.1,1.2-0.2,1.5-0.2l1.2,7.6c0.1,0.5,0.1,1.1,0.2,1.6h0.1c0-0.5,0.2-1.2,0.3-1.6l1.8-7.5h1.8l1.7,7.5c0.1,0.4,0.2,1.1,0.3,1.6
		h0.1c0-0.5,0.1-1.2,0.2-1.6l1.2-7.6c0.4,0,1.2,0.1,1.5,0.2C95.8,36,95.1,39.9,94.3,43.6z"/>
	<path d="M98.7,43.6v-16c0.4-0.1,1.1-0.2,1.6-0.2v16.1H98.7z"/>
	<path d="M109.4,38.2h-5.1v0.2c0,2.8,0.7,3.9,2.4,3.9c0.8,0,1.7-0.3,2.2-0.7c0.2,0.5,0.3,1,0.3,1.5c-0.6,0.5-1.7,0.8-2.6,0.8
		c-2.6,0-4.1-1.5-4.1-5.7c0-4.6,1.7-6,3.6-6c2,0,3.2,1.2,3.2,4.5C109.4,37,109.4,37.7,109.4,38.2z M106.2,33.4c-1.2,0-1.9,1-2,3.6
		h3.6c0-0.3,0-0.5,0-0.7C107.8,34.2,107.3,33.4,106.2,33.4z"/>
	<path d="M116.7,43.6v-0.8h-0.1c-0.7,0.8-1.4,1-2.3,1c-1.9,0-3.2-1.4-3.2-5.7c0-4.7,1.8-6,4-6c0.5,0,1.2,0.1,1.6,0.4v-4.8
		c0.3-0.1,1.2-0.2,1.6-0.2v16.1H116.7z M116.7,33.9c-0.4-0.2-1-0.4-1.5-0.4c-1.5,0-2.4,0.9-2.4,4.6c0,3.3,0.7,4.2,2,4.2
		c0.7,0,1.3-0.2,1.9-0.8V33.9z"/>
	<path d="M124.3,48.3c-2.5,0-3.6-1.1-3.6-2.9c0-0.9,0.3-1.7,1.1-2.5c-0.3-0.4-0.5-0.9-0.7-1.5c0.2-0.6,0.7-1.5,1.1-2.3
		c-0.6-0.5-1.2-1.4-1.2-3.1c0-2.4,1.2-3.9,3.1-3.9c0.5,0,0.9,0.1,1.3,0.2h2.6c0,0.4,0,0.9-0.1,1.3l-1.2,0.1v0.1
		c0.4,0.5,0.6,1.3,0.6,2.2c0,2.7-1.4,3.8-3.1,3.8c-0.4,0-0.8,0-1.1-0.2c-0.4,0.7-0.6,1.3-0.6,1.6c0,0.5,0.2,0.6,0.6,0.6h2.3
		c1.6,0,2.8,0.7,2.8,2.8C128.3,46.9,126.8,48.3,124.3,48.3z M125.4,43.3h-2.6c-0.4,0.5-0.6,1.1-0.6,1.7c0,1.3,0.7,1.8,2.2,1.8
		c1.6,0,2.4-0.6,2.4-2.1C126.7,43.6,126.2,43.3,125.4,43.3z M124.2,33.4c-1,0-1.6,0.6-1.6,2.5c0,1.9,0.6,2.5,1.6,2.5
		c1,0,1.6-0.5,1.6-2.5C125.8,34,125.2,33.4,124.2,33.4z"/>
	<path d="M136.4,38.2h-5.1v0.2c0,2.8,0.7,3.9,2.4,3.9c0.8,0,1.7-0.3,2.2-0.7c0.2,0.5,0.3,1,0.3,1.5c-0.6,0.5-1.7,0.8-2.6,0.8
		c-2.6,0-4.1-1.5-4.1-5.7c0-4.6,1.7-6,3.6-6c2,0,3.2,1.2,3.2,4.5C136.4,37,136.4,37.7,136.4,38.2z M133.2,33.4c-1.2,0-1.9,1-2,3.6
		h3.6c0-0.3,0-0.5,0-0.7C134.8,34.2,134.3,33.4,133.2,33.4z"/>
	<path d="M151.6,43.6h-1.7l-1.8-7.9c-0.1-0.4-0.2-1-0.2-1.6h-0.1c0,0.5-0.2,1.1-0.2,1.6l-1.8,7.9h-1.7c-0.8-3.7-1.5-7.5-2.1-11.2
		c0.4-0.1,1.2-0.2,1.5-0.2l1.2,7.6c0.1,0.5,0.1,1.1,0.2,1.6h0.1c0-0.5,0.2-1.2,0.3-1.6l1.8-7.5h1.8l1.7,7.5c0.1,0.4,0.2,1.1,0.3,1.6
		h0.1c0-0.5,0.1-1.2,0.2-1.6l1.2-7.6c0.4,0,1.2,0.1,1.5,0.2C153.1,36,152.4,39.9,151.6,43.6z"/>
	<path d="M156.7,30.2c-0.7,0-1-0.5-1-1.1c0-0.6,0.3-1.1,1-1.1c0.7,0,0.9,0.5,0.9,1.1C157.7,29.7,157.4,30.2,156.7,30.2z M155.9,43.6
		V32.3h1.6v11.3H155.9z"/>
	<path d="M163.4,43.8c-1.7,0-2.6-0.8-2.6-3.3v-6.8h-1.1v-1.4h1.1v-2.4c0.3-0.2,1.1-0.3,1.6-0.3v2.8h2.2c0,0.5,0,1-0.1,1.4h-2.1v6.8
		c0,1.3,0.3,1.8,1.2,1.8c0.4,0,0.9-0.2,1.3-0.3c0.1,0.4,0.2,1,0.2,1.5C164.5,43.6,163.9,43.8,163.4,43.8z"/>
	<path d="M171.9,43.6v-8.2c0-1.2-0.4-1.8-1.5-1.8c-0.8,0-1.5,0.3-2.2,0.9v9.2h-1.6v-16c0.3-0.1,1.2-0.2,1.6-0.2v5.7h0.1
		c0.8-0.8,1.6-1.1,2.6-1.1c1.4,0,2.6,0.7,2.6,3.3v8.2H171.9z"/>
	<path d="M179.5,43.8c-2.3,0-3.8-1.5-3.8-5.9c0-4.4,1.6-5.9,3.8-5.9c2.3,0,3.8,1.5,3.8,5.9C183.3,42.3,181.7,43.8,179.5,43.8z
		 M179.6,33.5c-1.4,0-2.1,1-2.1,4.4c0,3.4,0.7,4.4,2.1,4.4c1.4,0,2.1-1,2.1-4.4C181.7,34.5,181,33.5,179.6,33.5z"/>
	<path d="M190.8,43.6v-0.9h-0.1c-0.8,0.8-1.6,1.1-2.6,1.1c-1.4,0-2.6-0.7-2.6-3.3v-8.1c0.3-0.1,1.1-0.1,1.6-0.1v8.3
		c0,1.2,0.4,1.8,1.4,1.8c0.8,0,1.5-0.3,2.2-0.9v-9.1c0.3-0.1,1.1-0.1,1.6-0.1v11.4H190.8z"/>
	<path d="M198.3,43.8c-1.7,0-2.6-0.8-2.6-3.3v-6.8h-1.1v-1.4h1.1v-2.4c0.3-0.2,1.1-0.3,1.6-0.3v2.8h2.2c0,0.5,0,1-0.1,1.4h-2.1v6.8
		c0,1.3,0.3,1.8,1.2,1.8c0.4,0,0.9-0.2,1.3-0.3c0.1,0.4,0.2,1,0.2,1.5C199.5,43.6,198.8,43.8,198.3,43.8z"/>
	<path d="M208.8,43.8c-0.8,0-2.1-0.1-3.2-0.3V29.1c1-0.2,2.3-0.3,3.1-0.3c2.5,0,4.2,1.1,4.2,3.8c0,1.6-0.7,2.7-1.7,3.2V36
		c1.3,0.6,2,1.7,2,3.4C213.1,42.6,211.2,43.8,208.8,43.8z M208.8,30.2c-0.5,0-1,0-1.6,0.1v5.1h1.8c1.2,0,2-1,2-2.7
		C211,31.1,210.3,30.2,208.8,30.2z M209.1,36.8h-1.8v5.5c0.3,0,1.1,0.1,1.5,0.1c1.8,0,2.6-1.1,2.6-3
		C211.3,37.7,210.5,36.8,209.1,36.8z"/>
	<path d="M218.5,43.8c-2.3,0-3.8-1.5-3.8-5.9c0-4.4,1.6-5.9,3.8-5.9c2.3,0,3.8,1.5,3.8,5.9C222.3,42.3,220.7,43.8,218.5,43.8z
		 M218.6,33.5c-1.4,0-2.1,1-2.1,4.4c0,3.4,0.7,4.4,2.1,4.4c1.4,0,2.1-1,2.1-4.4C220.7,34.5,220,33.5,218.6,33.5z"/>
	<path d="M229.8,43.6v-0.9h-0.1c-0.8,0.8-1.6,1.1-2.6,1.1c-1.4,0-2.6-0.7-2.6-3.3v-8.1c0.3-0.1,1.1-0.1,1.6-0.1v8.3
		c0,1.2,0.4,1.8,1.4,1.8c0.8,0,1.5-0.3,2.2-0.9v-9.1c0.3-0.1,1.1-0.1,1.6-0.1v11.4H229.8z"/>
	<path d="M239.7,43.6v-8.2c0-1.2-0.4-1.8-1.5-1.8c-0.8,0-1.5,0.3-2.2,0.9v9.2h-1.6V32.3c0.3-0.1,1.2-0.1,1.6-0.1v1h0.1
		c0.8-0.8,1.6-1.1,2.6-1.1c1.4,0,2.6,0.7,2.6,3.3v8.2H239.7z"/>
	<path d="M249.1,43.6v-0.8h-0.1c-0.7,0.8-1.4,1-2.3,1c-1.9,0-3.2-1.4-3.2-5.7c0-4.7,1.8-6,4-6c0.5,0,1.2,0.1,1.6,0.4v-4.8
		c0.3-0.1,1.2-0.2,1.6-0.2v16.1H249.1z M249.1,33.9c-0.4-0.2-1-0.4-1.5-0.4c-1.5,0-2.4,0.9-2.4,4.6c0,3.3,0.7,4.2,2,4.2
		c0.7,0,1.3-0.2,1.9-0.8V33.9z"/>
	<path d="M259.6,43.8c-0.8,0-1.3-0.3-1.6-1h-0.1c-0.9,0.7-1.6,1-2.4,1c-1.5,0-2.5-1-2.5-3.1c0-2.3,1-3.2,3.1-3.3l1.8-0.1V34
		c-0.4-0.3-1.1-0.5-1.8-0.5c-0.8,0-1.5,0.2-2,0.5c-0.1-0.4-0.2-1-0.2-1.5c0.7-0.3,1.4-0.4,2.2-0.4c1.1,0,2.6,0.3,3.3,1.1v8.5
		c0,0.5,0.1,0.6,0.5,0.6h0.8v0.4C260.7,43.4,260.3,43.8,259.6,43.8z M257.8,38.5l-1.7,0.1c-1,0.1-1.5,0.6-1.5,2.1
		c0,1.3,0.5,1.7,1.4,1.7c0.6,0,1.2-0.2,1.8-0.7V38.5z"/>
	<path d="M267,33.9c-0.2-0.1-0.4-0.1-0.7-0.1c-0.6,0-1.2,0.2-2,1v8.8h-1.6V32.3c0.3-0.1,1.2-0.1,1.6-0.1v1.2h0.1
		c0.9-1.1,1.5-1.3,2.1-1.3c0.2,0,0.5,0,0.7,0.1C267.1,32.7,267.1,33.3,267,33.9z"/>
	<path d="M269.9,30.2c-0.7,0-1-0.5-1-1.1c0-0.6,0.3-1.1,1-1.1c0.7,0,0.9,0.5,0.9,1.1C270.9,29.7,270.6,30.2,269.9,30.2z M269.1,43.6
		V32.3h1.6v11.3H269.1z"/>
	<path d="M279.8,38.2h-5.1v0.2c0,2.8,0.7,3.9,2.4,3.9c0.8,0,1.7-0.3,2.2-0.7c0.2,0.5,0.3,1,0.3,1.5c-0.6,0.5-1.7,0.8-2.6,0.8
		c-2.6,0-4.1-1.5-4.1-5.7c0-4.6,1.7-6,3.6-6c2,0,3.2,1.2,3.2,4.5C279.9,37,279.8,37.7,279.8,38.2z M276.7,33.4c-1.2,0-1.9,1-2,3.6
		h3.6c0-0.3,0-0.5,0-0.7C278.3,34.2,277.8,33.4,276.7,33.4z"/>
	<path d="M284,43.8c-0.8,0-1.7-0.2-2.4-0.7c0.1-0.6,0.2-1,0.3-1.5c0.7,0.5,1.4,0.7,2.2,0.7c1,0,1.5-0.6,1.5-1.7c0-2.5-3.9-2-3.9-5.2
		c0-2.2,1.5-3.4,3.3-3.4c0.5,0,1.3,0.1,1.9,0.3c0,0.5-0.1,1.1-0.2,1.6c-0.6-0.3-1.2-0.4-1.9-0.4c-0.9,0-1.5,0.6-1.5,1.7
		c0,2.1,3.9,1.7,3.9,5.3C287.3,42.8,285.7,43.8,284,43.8z"/>
</g>
</svg>
