<svg version="1.1" xmlns="http://www.w3.org/2000/svg" xmlns:xlink="http://www.w3.org/1999/xlink" x="0px" y="0px"
	 viewBox="0 0 600 19.1" aria-label="Series: Connected Youth and Digital Futures" style="enable-background:new 0 0 600 19.1;" xml:space="preserve">
<style type="text/css">
	.st0{fill:#FFFFFF;}
</style>
<g>
	<path class="st0" d="M0,9.6L0,9.6C0,4.3,4,0,9.6,0c3.4,0,5.5,1.2,7.3,2.9l-2.1,2.4C13.3,3.9,11.7,3,9.6,3C6,3,3.4,5.9,3.4,9.5v0.1
		c0,3.6,2.6,6.6,6.2,6.6c2.3,0,3.8-0.9,5.4-2.4l2.1,2.1c-1.9,2-4.1,3.3-7.6,3.3C4.1,19.1,0,14.9,0,9.6z"/>
	<path class="st0" d="M18.7,9.6L18.7,9.6c0-5.3,4.1-9.6,9.8-9.6s9.7,4.3,9.7,9.5v0.1c0,5.2-4.1,9.6-9.8,9.6
		C22.7,19.1,18.7,14.8,18.7,9.6z M34.8,9.6L34.8,9.6C34.8,6,32.1,3,28.4,3s-6.3,2.9-6.3,6.5v0.1c0,3.6,2.6,6.6,6.3,6.6
		C32.2,16.1,34.8,13.2,34.8,9.6z"/>
	<path class="st0" d="M40.7,0.3h3l10,12.8V0.3H57v18.5h-2.7L43.9,5.7v13.2h-3.2V0.3z"/>
	<path class="st0" d="M61,0.3h3l10,12.8V0.3h3.2v18.5h-2.7L64.2,5.7v13.2H61V0.3z"/>
	<path class="st0" d="M81.2,0.3H95v2.9H84.5V8h9.4v2.9h-9.4v5h10.7v2.9h-14C81.2,18.8,81.2,0.3,81.2,0.3z"/>
	<path class="st0" d="M97.6,9.6L97.6,9.6c0-5.3,4-9.6,9.6-9.6c3.4,0,5.5,1.2,7.3,2.9l-2.1,2.4c-1.5-1.4-3.1-2.3-5.2-2.3
		c-3.5,0-6.2,2.9-6.2,6.5v0.1c0,3.6,2.6,6.6,6.2,6.6c2.3,0,3.8-0.9,5.4-2.4l2.1,2.1c-1.9,2-4.1,3.3-7.6,3.3
		C101.7,19.1,97.6,14.9,97.6,9.6z"/>
	<path class="st0" d="M122.8,3.3h-5.9v-3H132v3h-5.9v15.5h-3.3L122.8,3.3L122.8,3.3z"/>
	<path class="st0" d="M134.9,0.3h13.8v2.9h-10.6V8h9.4v2.9h-9.4v5h10.7v2.9h-14V0.3z"/>
	<path class="st0" d="M152.6,0.3h7c5.9,0,9.9,4,9.9,9.2v0.1c0,5.2-4.1,9.3-9.9,9.3h-7V0.3z M155.9,3.3v12.6h3.7
		c3.9,0,6.5-2.6,6.5-6.2V9.6c0-3.6-2.6-6.3-6.5-6.3H155.9z"/>
	<path class="st0" d="M186.8,11.5l-7.4-11.2h3.9l5.2,8.2l5.3-8.2h3.8l-7.4,11.1v7.4h-3.3V11.5z"/>
	<path class="st0" d="M197.9,9.6L197.9,9.6c0-5.3,4.1-9.6,9.8-9.6s9.7,4.3,9.7,9.5v0.1c0,5.2-4.1,9.6-9.8,9.6
		C201.9,19.1,197.9,14.8,197.9,9.6z M214,9.6L214,9.6c0-3.6-2.6-6.6-6.3-6.6c-3.7,0-6.3,2.9-6.3,6.5v0.1c0,3.6,2.6,6.6,6.3,6.6
		C211.4,16.1,214,13.2,214,9.6z"/>
	<path class="st0" d="M221.1,11V0.3h3.3v10.5c0,3.4,1.8,5.3,4.7,5.3c2.9,0,4.7-1.7,4.7-5.1V0.3h3.3v10.5c0,5.5-3.1,8.3-8,8.3
		C224.2,19.1,221.1,16.3,221.1,11z"/>
	<path class="st0" d="M246.2,3.3h-5.9v-3h15.1v3h-5.9v15.5h-3.3V3.3z"/>
	<path class="st0" d="M258.9,0.3h3.3V8h8.9V0.3h3.3v18.5H271V11h-8.9v7.8h-3.3V0.3z"/>
	<path class="st0" d="M294.6,0.2h1.3l8.7,18.6h-1.5l-2.4-5.2h-11l-2.4,5.2h-1.4L294.6,0.2z M300.1,12.4l-4.9-10.7l-4.9,10.7H300.1z"
		/>
	<path class="st0" d="M308.5,0.3h1.3l12.9,16.1V0.3h1.3v18.5h-1L309.9,2.4v16.4h-1.3V0.3L308.5,0.3z"/>
	<path class="st0" d="M329.6,0.3h6.2c5.9,0,9.9,4,9.9,9.2v0.1c0,5.2-4.1,9.3-9.9,9.3h-6.2V0.3z M331,1.6v16h4.8
		c5.2,0,8.5-3.5,8.5-7.9V9.6c0-4.4-3.3-8-8.5-8C335.8,1.6,331,1.6,331,1.6z"/>
	<path class="st0" d="M358.4,0.3h6.2c5.9,0,9.9,4,9.9,9.2v0.1c0,5.2-4.1,9.3-9.9,9.3h-6.2V0.3z M359.8,1.6v16h4.8
		c5.2,0,8.5-3.5,8.5-7.9V9.6c0-4.4-3.3-8-8.5-8C364.6,1.6,359.8,1.6,359.8,1.6z"/>
	<path class="st0" d="M379.4,0.3h1.4v18.5h-1.4V0.3z"/>
	<path class="st0" d="M385.7,9.6L385.7,9.6c0-5,3.7-9.6,9.2-9.6c3,0,5,0.9,6.8,2.4l-0.9,1c-1.5-1.3-3.2-2.2-6-2.2
		c-4.5,0-7.7,3.8-7.7,8.3v0.1c0,4.8,3,8.4,8,8.4c2.4,0,4.6-1,5.9-2.1v-5.3h-6.2V9.2h7.6v7.1c-1.7,1.5-4.3,2.8-7.3,2.8
		C389.2,19.1,385.7,14.8,385.7,9.6z"/>
	<path class="st0" d="M407.6,0.3h1.4v18.5h-1.4V0.3z"/>
	<path class="st0" d="M419.9,1.6h-6.5V0.3h14.4v1.3h-6.5v17.2h-1.4V1.6z"/>
	<path class="st0" d="M436.7,0.2h1.3l8.7,18.6h-1.5l-2.4-5.2h-11l-2.4,5.2H428L436.7,0.2z M442.2,12.4l-4.9-10.7l-4.9,10.7H442.2z"
		/>
	<path class="st0" d="M450.6,0.3h1.4v17.2h11v1.3h-12.3V0.3z"/>
	<path class="st0" d="M475.1,0.3h13.1v1.3h-11.8v7.6h10.6v1.3h-10.6v8.4h-1.4L475.1,0.3L475.1,0.3z"/>
	<path class="st0" d="M492.3,11.1V0.3h1.4V11c0,4.4,2.4,6.9,6.3,6.9c3.8,0,6.2-2.3,6.2-6.7V0.3h1.4V11c0,5.3-3.1,8.1-7.6,8.1
		C495.5,19.1,492.3,16.3,492.3,11.1z"/>
	<path class="st0" d="M518,1.6h-6.5V0.3h14.4v1.3h-6.5v17.2H518V1.6z"/>
	<path class="st0" d="M529.8,11.1V0.3h1.4V11c0,4.4,2.4,6.9,6.3,6.9c3.8,0,6.2-2.3,6.2-6.7V0.3h1.4V11c0,5.3-3.1,8.1-7.6,8.1
		C533,19.1,529.8,16.3,529.8,11.1z"/>
	<path class="st0" d="M550.4,0.3h7.8c2.3,0,4.1,0.7,5.2,1.8c0.9,0.9,1.4,2.1,1.4,3.4v0.1c0,3.1-2.3,4.9-5.5,5.3l6.2,7.9h-1.8
		l-5.9-7.7h-6.1v7.7h-1.4L550.4,0.3L550.4,0.3z M558.1,9.9c3.1,0,5.4-1.6,5.4-4.2V5.6c0-2.5-2-4-5.4-4h-6.4v8.3
		C551.8,9.9,558.1,9.9,558.1,9.9z"/>
	<path class="st0" d="M569.6,0.3h13.3v1.3H571v7.3h10.7v1.3H571v7.4h12v1.3h-13.4V0.3z"/>
	<path class="st0" d="M586.3,16.1l0.9-1c2.1,1.9,3.9,2.7,6.7,2.7c2.8,0,4.7-1.6,4.7-3.7v-0.1c0-2-1-3.1-5.3-3.9
		C588.9,9.3,587,7.8,587,5V4.9c0-2.7,2.5-4.9,6-4.9c2.7,0,4.5,0.7,6.4,2.2l-0.9,1.1c-1.8-1.5-3.5-2.1-5.6-2.1
		c-2.7,0-4.6,1.6-4.6,3.5v0.1c0,2,1,3.1,5.4,4c4.3,0.9,6.1,2.4,6.1,5.1V14c0,3-2.6,5-6.2,5C590.8,19.1,588.5,18.1,586.3,16.1z"/>
</g>
</svg>
