<svg version="1.1" xmlns="http://www.w3.org/2000/svg" xmlns:xlink="http://www.w3.org/1999/xlink" x="0px" y="0px"
	 fill="{{ .fill }}" width="{{ .width }}" height="{{ .height }}"  viewBox="0 0 40 40" style="enable-background:new 0 0 40 40;" xml:space="preserve">
<g>
	<path d="M20,3.6c5.3,0,6,0,8.1,0.1c1.9,0.1,3,0.4,3.7,0.7c0.9,0.4,1.6,0.8,2.3,1.5c0.7,0.7,1.1,1.4,1.5,2.3
		c0.3,0.7,0.6,1.8,0.7,3.7c0.1,2.1,0.1,2.7,0.1,8.1s0,6-0.1,8.1c-0.1,1.9-0.4,3-0.7,3.7c-0.4,0.9-0.8,1.6-1.5,2.3
		c-0.7,0.7-1.4,1.1-2.3,1.5c-0.7,0.3-1.8,0.6-3.7,0.7c-2.1,0.1-2.7,0.1-8.1,0.1s-6,0-8.1-0.1c-1.9-0.1-3-0.4-3.7-0.7
		c-0.9-0.4-1.6-0.8-2.3-1.5c-0.7-0.7-1.1-1.4-1.5-2.3c-0.3-0.7-0.6-1.8-0.7-3.7C3.6,26,3.6,25.3,3.6,20s0-6,0.1-8.1
		c0.1-1.9,0.4-3,0.7-3.7c0.4-0.9,0.8-1.6,1.5-2.3c0.7-0.7,1.4-1.1,2.3-1.5c0.7-0.3,1.8-0.6,3.7-0.7C14,3.6,14.7,3.6,20,3.6 M20,0
		c-5.4,0-6.1,0-8.2,0.1C9.6,0.2,8.2,0.6,6.9,1C5.6,1.6,4.5,2.2,3.4,3.4C2.2,4.5,1.6,5.6,1,6.9c-0.5,1.3-0.8,2.7-0.9,4.9
		C0,13.9,0,14.6,0,20c0,5.4,0,6.1,0.1,8.2c0.1,2.1,0.4,3.6,0.9,4.9c0.5,1.3,1.2,2.4,2.3,3.5c1.1,1.1,2.2,1.8,3.5,2.3
		c1.3,0.5,2.7,0.8,4.9,0.9C13.9,40,14.6,40,20,40s6.1,0,8.2-0.1c2.1-0.1,3.6-0.4,4.9-0.9c1.3-0.5,2.4-1.2,3.5-2.3
		c1.1-1.1,1.8-2.2,2.3-3.5c0.5-1.3,0.8-2.7,0.9-4.9C40,26.1,40,25.4,40,20s0-6.1-0.1-8.2c-0.1-2.1-0.4-3.6-0.9-4.9
		c-0.5-1.3-1.2-2.4-2.3-3.5c-1.1-1.1-2.2-1.8-3.5-2.3c-1.3-0.5-2.7-0.8-4.9-0.9C26.1,0,25.4,0,20,0L20,0z"/>
	<path d="M20,9.7C14.3,9.7,9.7,14.3,9.7,20S14.3,30.3,20,30.3S30.3,25.7,30.3,20S25.7,9.7,20,9.7z M20,26.7c-3.7,0-6.7-3-6.7-6.7
		c0-3.7,3-6.7,6.7-6.7c3.7,0,6.7,3,6.7,6.7C26.7,23.7,23.7,26.7,20,26.7z"/>
	<circle cx="30.7" cy="9.3" r="2.4"/>
</g>
</svg>
